<?xml version="1.0"?>
<svg xmlns="http://www.w3.org/2000/svg" viewBox="0 0 64 64" width="512" height="512"><g id="Solution"><path d="M50.627,20.753l-6.36-6.36a1,1,0,0,0-1.7.563,4,4,0,1,1-4.526-4.526,1,1,0,0,0,.563-1.7l-6.36-6.36a1,1,0,0,0-1.414,0L25.307,7.891a6,6,0,1,0-7.347,7.345l-5.517,5.517a1,1,0,0,0,0,1.414l5.519,5.526a6,6,0,0,0-.727,11.343L14.9,45.771a5,5,0,0,0,.172,4.407l3.51,8.3a.8.8,0,0,0,.045.093A3.053,3.053,0,0,1,19,60.04V61a1,1,0,0,0,2,0v-.96a5.062,5.062,0,0,0-.6-2.384l-3.511-8.3a.9.9,0,0,0-.048-.1,3.036,3.036,0,0,1-.088-2.744l2.446-7.04c.105,0,.208.015.314.015a5.989,5.989,0,0,0,5.791-4.442L27,36.734V47a1,1,0,0,0,2,0V33a3,3,0,0,1,6,0V45.111a9.05,9.05,0,0,0,.95,4.025l.366.734a7.026,7.026,0,0,1,0,6.26l-1,2A3.014,3.014,0,0,0,35,59.472V61a1,1,0,0,0,2,0V59.472a1.019,1.019,0,0,1,.1-.447l1-2a9.036,9.036,0,0,0,0-8.049l-.366-.734a7.035,7.035,0,0,1-.687-2.295A6.979,6.979,0,0,0,42,48a3,3,0,0,0,3-3V39.3a5.994,5.994,0,0,0,.109-11.609l5.518-5.526A1,1,0,0,0,50.627,20.753ZM42,46a5.006,5.006,0,0,1-5-5V35.8l.764-.764A5.984,5.984,0,0,0,43,39.456V45A1,1,0,0,1,42,46Zm.143-18.167a1,1,0,0,0,.852,1.7,4,4,0,1,1-3.4,3.4,1,1,0,0,0-1.7-.852L37,32.978A5,5,0,0,0,27,33v.906l-1.833-1.833a1,1,0,0,0-1.7.852,4,4,0,1,1-3.4-3.4,1,1,0,0,0,.853-1.7L14.563,21.46,20.927,15.1a1,1,0,0,0-.852-1.7,4,4,0,0,1-3.388-6.784,4.1,4.1,0,0,1,5.656,0,4,4,0,0,1,1.128,3.388,1,1,0,0,0,1.7.852L31.54,4.494l4.481,4.482a6,6,0,1,0,8,8l4.482,4.481Z"/><path d="M61,23H55a1,1,0,0,1,0-2h6a1,1,0,0,1,0,2Z"/><path d="M53.919,11.5a1,1,0,0,1-.5-1.866l5.2-3a1,1,0,0,1,1,1.732l-5.2,3A.992.992,0,0,1,53.919,11.5Z"/><path d="M59.114,37.5a.992.992,0,0,1-.5-.134l-5.2-3a1,1,0,1,1,1-1.732l5.2,3a1,1,0,0,1-.5,1.866Z"/><path d="M9,23H3a1,1,0,0,1,0-2H9a1,1,0,0,1,0,2Z"/><path d="M10.081,11.5a.992.992,0,0,1-.5-.134l-5.2-3a1,1,0,0,1,1-1.732l5.2,3a1,1,0,0,1-.5,1.866Z"/><path d="M4.886,37.5a1,1,0,0,1-.5-1.866l5.2-3a1,1,0,1,1,1,1.732l-5.2,3A.992.992,0,0,1,4.886,37.5Z"/></g></svg>
